<svg viewBox="0 0 400 400" fill="none" xmlns="http://www.w3.org/2000/svg">
  <circle cx="200" cy="200" r="190" stroke="#5B2D8E" stroke-width="1.2"/>
  <circle cx="200" cy="200" r="150" stroke="#5B2D8E" stroke-width="1.2"/>
  <circle cx="200" cy="200" r="110" stroke="#7B4DB8" stroke-width="1"/>
  <circle cx="200" cy="200" r="70" stroke="#7B4DB8" stroke-width="1"/>
  <polygon points="200,10 389,200 200,390 11,200" stroke="#5B2D8E" stroke-width="1"/>
  <polygon points="200,50 350,200 200,350 50,200" stroke="#5B2D8E" stroke-width="1"/>
  <line x1="200" y1="10" x2="200" y2="390" stroke="#7B4DB8" stroke-width="0.7"/>
  <line x1="10" y1="200" x2="390" y2="200" stroke="#7B4DB8" stroke-width="0.7"/>
  <line x1="66" y1="66" x2="334" y2="334" stroke="#7B4DB8" stroke-width="0.7"/>
  <line x1="334" y1="66" x2="66" y2="334" stroke="#7B4DB8" stroke-width="0.7"/>
  <circle cx="200" cy="200" r="30" stroke="#5B2D8E" stroke-width="1.2"/>
  <polygon points="200,30 230,170 370,170 253,250 290,390 200,300 110,390 147,250 30,170 170,170" stroke="#5B2D8E" stroke-width="0.8"/>
</svg>
